<svg width="64" height="64" viewBox="0 0 64 64" fill="none" xmlns="http://www.w3.org/2000/svg" aria-hidden="true">
  <defs>
    <linearGradient id="g" x1="0" y1="0" x2="64" y2="64" gradientUnits="userSpaceOnUse">
      <stop stop-color="#6ee7b7"/>
      <stop offset="1" stop-color="#34d399"/>
    </linearGradient>
  </defs>
  <rect x="6" y="6" width="52" height="52" rx="12" fill="url(#g)"/>
  <path d="M15 40c10-1 18-5 24-12 2-2 5-3 8-2l2 1c2 1 2 4 0 5l-10 7c-6 4-13 6-20 6h-3c-1 0-2-1-1-2l1-2c0-1 1-1 2-1h-1z" fill="#0f1220"/>
  <path d="M24 23c2-3 6-5 10-6 2 0 4 2 3 4-1 2-3 3-5 4-3 1-6 2-8 2 0-2 0-3 0-4z" fill="#0f1220" opacity=".8"/>
</svg>

